<?xml version="1.0" encoding="UTF-8" standalone="no"?>
<svg
   viewBox="0 0 48 48"
   xml:space="preserve"
   width="100%"
   height="100%"
   version="1.1"
   id="svg1"
   sodipodi:docname="icon.svg"
   inkscape:version="1.4 (e7c3feb100, 2024-10-09)"
   xmlns:inkscape="http://www.inkscape.org/namespaces/inkscape"
   xmlns:sodipodi="http://sodipodi.sourceforge.net/DTD/sodipodi-0.dtd"
   xmlns="http://www.w3.org/2000/svg"
   xmlns:svg="http://www.w3.org/2000/svg"><defs
     id="defs1" /><sodipodi:namedview
     id="namedview1"
     pagecolor="#ffffff"
     bordercolor="#000000"
     borderopacity="0.25"
     inkscape:showpageshadow="2"
     inkscape:pageopacity="0.0"
     inkscape:pagecheckerboard="0"
     inkscape:deskcolor="#d1d1d1"
     inkscape:zoom="12.708811"
     inkscape:cx="34.818362"
     inkscape:cy="12.58969"
     inkscape:window-width="1333"
     inkscape:window-height="1188"
     inkscape:window-x="1577"
     inkscape:window-y="744"
     inkscape:window-maximized="0"
     inkscape:current-layer="svg1" /><path
     d="m 24.125172,26.701789 h 0.747343 v 4.515536 h -0.747343 z m 8.407615,0 h 0.747343 v 4.515536 h -0.747343 z m -6.352421,-1.693325 h 0.747344 v 7.714039 h -0.747344 z m 4.297226,0.188147 h 0.747343 v 7.525892 h -0.747343 z m 4.11039,0 h 0.747344 v 7.525892 h -0.747344 z m -6.352421,-1.881473 h 0.747344 v 11.288839 h -0.747344 z"
     id="path1"
     style="stroke-width:1" /><path
     d="m 16.644317,15.886672 a 0.60592153,0.61244604 0 0 0 0,1.224891 h 0.605922 a 0.60592153,0.61244604 0 0 0 0,-1.224891 z m 3.029608,7.34935 h -4.24145 a 0.60592148,0.61244599 0 0 1 -0.605922,-0.612445 v -8.574243 a 0.60592148,0.61244599 0 0 1 0.605922,-0.612447 h 3.029607 v 1.837338 a 1.8177643,1.8373379 0 0 0 1.817763,1.837338 h 1.817765 v 1.224892 a 0.6059215,0.61244601 0 0 0 1.211843,0 V 16.462371 A 0.78769786,0.79617972 0 0 0 23.273093,16.29701 V 16.24188 A 0.60592148,0.61244599 0 0 0 23.157967,16.070399 L 19.52244,12.395723 a 0.60592148,0.61244599 0 0 0 -0.16966,-0.116364 0.18177643,0.18373379 0 0 0 -0.06059,0 0.66651361,0.67369057 0 0 0 -0.187835,-0.06737 h -3.671881 a 1.8177643,1.8373379 0 0 0 -1.817764,1.837338 v 8.574243 a 1.8177643,1.8373379 0 0 0 1.817764,1.837338 h 4.241451 a 0.60592167,0.61244618 0 0 0 0,-1.224892 m 0,-8.935586 1.569336,1.586234 h -0.963416 a 0.60592148,0.61244599 0 0 1 -0.605922,-0.612445 z m 0.605922,4.036018 h -3.63553 a 0.60592209,0.61244661 0 0 0 0,1.224893 h 3.63553 a 0.60592209,0.61244661 0 0 0 0,-1.224893 m 4.065732,3.852285 a 0.60592148,0.61244599 0 0 0 -0.860408,0 l -0.175718,0.183734 v -1.586232 a 0.60592197,0.61244649 0 0 0 -1.211843,0 v 1.586234 l -0.175717,-0.183734 a 0.6084011,0.61495232 0 0 0 -0.860409,0.869674 l 1.211844,1.224892 a 0.60592148,0.61244599 0 0 0 0.199953,0.128614 0.56956617,0.57569921 0 0 0 0.460501,0 0.60592148,0.61244599 0 0 0 0.199954,-0.128614 l 1.211843,-1.224892 a 0.60592148,0.61244599 0 0 0 0,-0.869674 m -5.277576,-0.177608 a 0.6059216,0.61244611 0 0 0 0,-1.224892 h -2.423688 a 0.6059216,0.61244611 0 0 0 0,1.224892 z"
     id="path1-5"
     style="stroke-width:0.999994" /></svg>
